<svg width="135" height="151" viewBox="0 0 135 151" fill="none" xmlns="http://www.w3.org/2000/svg">
<path d="M132.789 52.25C132.305 51.9688 131.781 51.8242 131.219 51.8242C130.656 51.8242 130.133 51.9688 129.648 52.25L76.4219 82.9023C75.9375 83.1836 75.5547 83.5664 75.2773 84.0508C74.9961 84.5352 74.8594 85.0586 74.8594 85.6172V146.922C74.8594 147.336 74.9414 147.734 75.1016 148.117C75.2617 148.5 75.4883 148.836 75.7812 149.129C76.0742 149.422 76.4141 149.648 76.8008 149.805C77.1836 149.965 77.582 150.043 78 150.043C78.5586 150.047 79.082 149.906 79.5625 149.621L132.789 118.957C133.273 118.68 133.66 118.301 133.941 117.816C134.223 117.336 134.363 116.813 134.363 116.254V54.9492C134.363 54.3945 134.219 53.8711 133.938 53.3906C133.656 52.9062 133.273 52.5273 132.789 52.25Z" fill="black"/>
<rect x="91.8055" y="126.085" width="5" height="20" rx="2.5" transform="rotate(-140 91.8055 126.085)" fill="white"/>
<rect x="86.0922" y="101.347" width="5" height="20" rx="2.5" transform="rotate(-50 86.0922 101.347)" fill="white"/>
<rect x="110.5" y="120.33" width="5" height="20" rx="2.5" transform="rotate(-120 110.5 120.33)" fill="white"/>
<path d="M58.3672 82.8945L5.12891 52.2461C4.64453 51.9609 4.12109 51.8203 3.55859 51.8203C2.99609 51.8203 2.47266 51.9609 1.98828 52.2461C1.50391 52.5234 1.12109 52.9062 0.839844 53.3906C0.558594 53.875 0.417969 54.3984 0.417969 54.957V116.262C0.417969 116.82 0.558594 117.34 0.839844 117.82C1.12109 118.305 1.50391 118.684 1.98828 118.961L55.2227 149.613C55.707 149.898 56.2305 150.039 56.793 150.039C57.3555 150.039 57.8828 149.898 58.3672 149.613C58.8516 149.336 59.2305 148.957 59.5117 148.473C59.7891 147.992 59.9297 147.473 59.9297 146.914V85.6094C59.9336 85.0508 59.793 84.5273 59.5156 84.043C59.2344 83.5586 58.8516 83.1758 58.3672 82.8945Z" fill="black"/>
<path d="M123.762 33.8086C123.762 33.2461 123.621 32.7227 123.34 32.2383C123.059 31.7539 122.676 31.375 122.188 31.0938L68.9688 0.449219C68.4805 0.171875 67.957 0.0351562 67.3945 0.0351562C66.8359 0.0351562 66.3086 0.171875 65.8242 0.449219L12.6016 31.1016C12.1172 31.3789 11.7305 31.7578 11.4492 32.2422C11.168 32.7266 11.0273 33.2461 11.0273 33.8086C11.0273 34.3672 11.168 34.8867 11.4492 35.3711C11.7305 35.8555 12.1172 36.2344 12.6016 36.5156L65.8242 67.168C66.3086 67.4531 66.832 67.5977 67.3945 67.5977C67.957 67.5977 68.4844 67.4531 68.9688 67.168L122.188 36.5156C122.676 36.2344 123.059 35.8555 123.34 35.3711C123.621 34.8867 123.762 34.3672 123.762 33.8086Z" fill="black"/>
</svg>
